<?xml version="1.0" encoding="UTF-8" standalone="no"?>
<!-- Created with Inkscape (http://www.inkscape.org/) -->
<svg
   xmlns:dc="http://purl.org/dc/elements/1.1/"
   xmlns:cc="http://creativecommons.org/ns#"
   xmlns:rdf="http://www.w3.org/1999/02/22-rdf-syntax-ns#"
   xmlns:svg="http://www.w3.org/2000/svg"
   xmlns="http://www.w3.org/2000/svg"
   xmlns:xlink="http://www.w3.org/1999/xlink"
   xmlns:sodipodi="http://sodipodi.sourceforge.net/DTD/sodipodi-0.dtd"
   xmlns:inkscape="http://www.inkscape.org/namespaces/inkscape"
   id="svg2631"
   sodipodi:version="0.32"
   inkscape:version="0.46"
   width="1000"
   height="1000"
   version="1.0"
   sodipodi:docname="skull.svg"
   inkscape:output_extension="org.inkscape.output.svg.inkscape">
  <metadata
     id="metadata2636">
    <rdf:RDF>
      <cc:Work
         rdf:about="">
        <dc:format>image/svg+xml</dc:format>
        <dc:type
           rdf:resource="http://purl.org/dc/dcmitype/StillImage" />
      </cc:Work>
    </rdf:RDF>
  </metadata>
  <defs
     id="defs2634">
    <inkscape:perspective
       sodipodi:type="inkscape:persp3d"
       inkscape:vp_x="0 : 526.18109 : 1"
       inkscape:vp_y="0 : 1000 : 0"
       inkscape:vp_z="744.09448 : 526.18109 : 1"
       inkscape:persp3d-origin="372.04724 : 350.78739 : 1"
       id="perspective2638" />
  </defs>
  <sodipodi:namedview
     inkscape:window-height="669"
     inkscape:window-width="640"
     inkscape:pageshadow="2"
     inkscape:pageopacity="0.0"
     guidetolerance="10.0"
     gridtolerance="10.0"
     objecttolerance="10.0"
     borderopacity="1.0"
     bordercolor="#666666"
     pagecolor="#ffffff"
     id="base"
     showgrid="false"
     inkscape:zoom="0.462"
     inkscape:cx="500"
     inkscape:cy="500"
     inkscape:window-x="46"
     inkscape:window-y="46"
     inkscape:current-layer="svg2631" />
  <image
     xlink:href="skull.jpg"
     sodipodi:absref="C:\Mada\Scrapbook\SVG\halloween\skull.jpg"
     width="1000"
     height="1000"
     id="image2640"
     x="0"
     y="0" />
  <path
     style="fill:#000000"
     d="M 167.95022,871.2854 C 152.30707,870.305 132.52183,866.17636 122.66629,861.83588 C 120.86013,861.04043 118.77984,860.38961 118.04341,860.38961 C 116.51852,860.38961 110.18509,857.74944 99.827326,852.79601 C 95.909746,850.92249 92.439736,849.38961 92.116206,849.38961 C 90.699376,849.38961 72.428846,837.81975 65.619476,832.61049 C 58.469926,827.14098 42.494466,810.83467 40.092136,806.55447 C 39.464076,805.43547 37.600216,802.35311 35.950216,799.70477 L 32.950216,794.88961 L 32.651976,751.29514 L 32.353746,707.70067 L 25.516816,704.62665 C 17.924016,701.21276 12.517666,696.40231 9.3953865,690.28213 C 6.7846765,685.16472 3.9057465,673.83211 3.0717065,665.38961 C 2.0805565,655.35674 -0.58920355,640.37592 -2.2746435,635.38961 C -3.1112335,632.91461 -5.9392335,626.38961 -8.5590935,620.88961 C -16.062494,605.13734 -17.138804,602.54532 -20.808624,591.38961 C -28.891464,566.819 -30.851174,552.05396 -30.232174,520.38956 C -29.759434,496.2074 -29.188374,490.11239 -26.015994,475.38961 C -19.378344,444.58481 -9.0122835,419.61548 8.1041065,393.20255 C 10.487486,389.52467 12.879486,386.24234 13.419656,385.9085 C 13.959826,385.57465 16.004016,382.88764 17.962296,379.93737 C 21.862286,374.0618 39.685756,356.45006 45.987276,352.24531 C 56.031816,345.543 58.856016,343.94518 69.950216,338.68807 C 73.918786,336.80752 82.017216,334.22646 92.450216,331.51709 C 97.125216,330.30302 103.20022,328.67538 105.95022,327.90011 C 108.70022,327.12484 115.45022,325.53023 120.95022,324.35653 C 130.48556,322.32169 133.90626,321.38426 146.45022,317.3683 C 159.27204,313.26339 159.75068,313.20619 176.9813,313.71973 C 199.80552,314.39998 209.39515,315.94326 232.95022,322.72694 C 235.70022,323.51892 240.42522,325.15072 243.45022,326.35317 C 246.47522,327.55561 250.07522,328.90274 251.45022,329.34679 C 255.57038,330.67735 271.01332,339.06774 276.66913,343.0486 C 279.57373,345.09302 284.6408,348.5936 287.92929,350.82767 C 295.75076,356.14126 313.33004,373.7127 321.2858,384.16929 C 329.09657,394.43532 336.29033,405.9664 341.57266,416.68767 C 343.79525,421.19874 346.08596,425.76552 346.66314,426.83608 C 348.19686,429.68082 354.45952,447.23511 355.5872,451.85024 C 356.11946,454.02859 356.92271,456.27859 357.37219,456.85024 C 357.82168,457.42189 358.50053,459.68961 358.88076,461.88961 C 359.26098,464.08961 360.18266,468.13961 360.92894,470.88961 C 364.35916,483.52994 366.89595,501.77529 368.60966,526.13174 C 369.82045,543.34031 369.14919,562.94348 366.46068,588.88961 C 363.39977,618.42975 352.0616,666.75815 345.93276,676.38895 C 343.03078,680.94908 336.44425,687.74287 328.95022,693.90587 C 318.89204,702.17761 311.56133,710.256 310.95954,713.73147 C 310.65877,715.46845 310.799,732.63961 311.27115,751.88961 C 311.74331,771.13961 311.75413,787.92515 311.2952,789.19081 C 310.31384,791.89728 292.89091,814.62621 283.5469,825.38961 C 279.96587,829.51461 276.34165,833.71035 275.49308,834.71349 C 273.03028,837.62487 258.4003,849.73672 253.14127,853.21809 C 238.82974,862.69202 216.97121,869.82913 198.95022,870.91221 C 194.00022,871.20972 187.92522,871.59871 185.45022,871.77664 C 182.97522,871.95457 175.10022,871.73351 167.95022,871.2854 z M 219.45022,741.48209 C 233.52974,738.7182 240.74302,736.66124 241.95022,735.06593 C 242.50022,734.3391 243.85022,733.22828 244.95022,732.59743 C 246.8964,731.48129 246.88967,731.44961 244.70022,731.42002 C 243.46272,731.40329 242.45022,731.83961 242.45022,732.38961 C 242.45022,732.93961 240.44069,733.38961 237.9846,733.38961 C 235.52851,733.38961 228.44101,734.14785 222.2346,735.07459 C 198.86464,738.56418 150.32362,736.74084 134.52208,731.77985 C 128.89521,730.01326 125.52703,730.01706 123.52896,731.79224 C 121.24343,733.82283 111.81111,736.38961 106.63474,736.38961 C 104.18587,736.38961 100.42811,735.86405 98.284136,735.22171 C 93.777116,733.87137 91.679726,734.98568 93.696466,737.65906 C 94.664476,738.94223 98.596766,739.70581 110.95022,741.00942 C 137.53528,743.81483 145.6539,744.15837 177.95022,743.84454 C 204.35807,743.58792 210.50563,743.23796 219.45022,741.48209 z M 263.95549,725.17252 C 268.26981,720.37396 277.45022,703.52177 277.45022,700.40067 C 277.45022,699.66627 278.1075,696.77584 278.91084,693.9775 C 281.5922,684.63736 283.45022,668.93686 283.45022,655.6193 L 283.45022,642.43629 L 279.2639,640.41368 L 275.07757,638.39107 L 272.9063,640.43087 C 270.61184,642.58641 261.71339,659.7849 258.95792,667.38961 C 254.07776,680.85819 250.20022,699.66547 250.20022,709.86715 C 250.20022,716.10219 251.86387,725.24115 253.61755,728.63961 C 255.31271,731.92467 258.99507,730.6897 263.95549,725.17252 z M 81.949016,701.65375 C 81.791936,678.1298 81.584766,675.28096 79.566336,668.88961 C 75.820626,657.0288 70.307156,651.05588 59.450216,647.09715 C 50.847946,643.96054 47.198686,643.88893 43.751996,646.78913 L 40.669556,649.38283 L 44.112386,660.13622 C 46.005936,666.05059 48.192186,673.13961 48.970716,675.88961 C 55.507436,698.97935 62.249226,713.93936 69.478756,721.39685 C 74.513906,726.59078 79.382276,729.4697 81.035636,728.23106 C 81.775066,727.6771 82.066216,719.2052 81.949016,701.65375 z M 173.84393,705.32894 C 174.61168,700.52768 174.09004,699.38431 171.1412,699.40492 C 165.90771,699.4415 165.22182,703.7 169.82924,707.55052 C 172.82097,710.05078 173.11489,709.88813 173.84393,705.32894 z M 151.13577,632.2153 C 152.40872,631.01942 153.45022,629.44442 153.45022,628.7153 C 153.45022,627.98617 154.12522,627.38961 154.95022,627.38961 C 155.77522,627.38961 156.45022,626.71461 156.45022,625.88961 C 156.45022,623.68708 155.3056,624.08301 152.03355,627.41739 C 150.42939,629.05211 148.57199,630.38961 147.906,630.38961 C 147.24001,630.38961 146.16611,631.02701 145.51956,631.80606 C 144.58636,632.9305 144.71573,633.3189 146.14712,633.69006 C 147.13882,633.94721 148.14622,634.20981 148.38577,634.27361 C 148.62532,634.33741 149.86282,633.41117 151.13577,632.2153 z M 195.88351,627.88363 C 196.92196,625.95535 197.52705,624.1331 197.22815,623.83421 C 196.92925,623.53531 194.99415,624.438 192.92791,625.84018 C 190.86168,627.24237 188.22142,628.34971 187.06067,628.30095 C 185.82048,628.24885 182.8509,625.84989 179.8592,622.48326 C 174.80406,616.79461 174.76339,616.6948 174.08895,608.32192 C 173.34121,599.03904 169.3575,573.149 168.76764,573.73886 C 168.56353,573.94296 167.95499,579.14167 167.41532,585.29154 C 166.34754,597.45941 164.13739,606.62412 160.06661,615.76404 C 155.99251,624.91139 156.74728,627.04513 161.87969,620.88961 C 163.48473,618.96461 165.36994,617.38961 166.06903,617.38961 C 166.76812,617.38961 169.27738,619.45948 171.64516,621.98932 C 176.74314,627.43623 180.50807,629.67336 185.95022,630.48942 C 193.59279,631.63543 193.90749,631.55288 195.88351,627.88363 z M 141.658,615.49331 C 146.50681,612.59715 150.45022,607.83414 150.45022,604.8737 C 150.45022,603.57435 148.76272,600.52131 146.70022,598.08916 C 144.63772,595.65701 141.25234,591.59402 139.17715,589.06029 C 135.70811,584.8247 135.20451,584.54444 132.92715,585.58207 C 130.20189,586.82379 129.97154,588.21992 130.40151,600.88961 C 130.63558,607.78689 132.52208,618.07883 133.98663,620.44853 C 134.53181,621.33064 135.17488,621.12224 136.34331,619.6848 C 137.22711,618.59752 139.61872,616.71135 141.658,615.49331 z M 202.92066,602.94246 C 204.1482,593.59051 204.10629,591.09583 202.52107,579.15661 C 201.54704,571.82064 200.23264,564.85157 199.60017,563.66979 C 198.9677,562.48801 198.45022,560.80734 198.45022,559.93497 C 198.45022,559.06261 196.63195,554.50355 194.40961,549.80373 C 191.38796,543.4135 189.93793,541.33989 188.65961,541.58096 C 185.77107,542.12567 184.91803,551.59128 186.3481,567.23042 C 188.13364,586.75704 191.21473,599.11468 197.28451,611.09418 C 200.57171,617.58189 201.09923,616.81892 202.92066,602.94246 z M -3.0963135,580.13961 C -2.3530335,578.35211 -1.4491535,574.18961 -1.0876935,570.88961 C -0.72624355,567.58961 0.19361645,561.51461 0.95643645,557.38961 C 1.7192465,553.26461 3.3011665,544.26461 4.4717965,537.38961 C 5.6424265,530.51461 7.0490565,522.41461 7.5976265,519.38961 C 8.1461965,516.36461 9.2071265,509.38961 9.9552365,503.88961 C 10.703356,498.38961 11.773686,491.18961 12.333746,487.88961 C 12.893806,484.58961 13.486636,477.16461 13.651126,471.38961 C 13.894186,462.85671 13.684816,460.88961 12.533546,460.88961 C 11.754386,460.88961 10.801456,462.01461 10.415936,463.38961 C 10.030416,464.76461 8.7288665,469.26461 7.5236065,473.38961 C 6.3183465,477.51461 4.7119665,483.13961 3.9538665,485.88961 C 3.1957665,488.63961 1.8805065,493.36461 1.0310565,496.38961 C -8.9953735,532.09504 -12.531384,559.3327 -9.1717235,574.98097 C -7.1509635,584.39301 -5.4614835,585.82756 -3.0963135,580.13961 z M 355.08665,580.02239 C 351.01738,564.29725 348.52104,552.47622 345.97798,536.88961 C 345.17036,531.93961 344.22179,526.76461 343.87007,525.38961 C 343.51834,524.01461 342.64237,518.83961 341.92347,513.88961 C 340.1586,501.73757 338.61639,491.36447 337.26887,482.58214 C 336.11337,475.0513 334.17099,471.45359 330.02849,469.17136 C 320.37335,463.85205 319.35272,463.48011 318.7465,465.05989 C 318.17979,466.53672 320.46362,481.92961 322.65302,491.38961 C 323.22582,493.86461 324.28869,498.81461 325.01495,502.38961 C 328.30066,518.56347 336.06999,545.4897 341.4618,559.38961 C 342.63521,562.41461 344.07635,566.23961 344.66435,567.88961 C 345.25234,569.53961 346.34471,571.60004 347.09182,572.46835 C 347.83894,573.33666 348.45022,574.43747 348.45022,574.9146 C 348.45022,575.39173 349.63095,577.48591 351.07407,579.56833 C 353.79327,583.49213 356.05063,583.74757 355.08665,580.02239 z M 144.61034,576.9975 C 152.22054,573.63191 153.45022,570.83536 153.45022,556.89372 C 153.45022,548.89607 152.92144,544.45919 151.35282,539.29485 C 150.19925,535.49697 148.85839,532.38961 148.37314,532.38961 C 147.20382,532.38961 143.44628,539.823 143.46471,542.09977 C 143.47268,543.08418 142.53035,547.03961 141.37064,550.88961 C 140.21094,554.73961 138.64652,560.13961 137.89415,562.88961 C 137.14179,565.63961 135.81895,570.27054 134.95451,573.18056 C 132.52293,581.36617 133.68938,581.82727 144.61034,576.9975 z M 81.450216,573.36005 C 102.10673,566.50118 120.06516,547.41258 127.5213,524.38961 C 129.57345,518.053 129.94993,514.91646 129.94837,504.16938 L 129.94653,491.44914 L 124.10471,485.54573 C 117.07709,478.44401 103.78308,470.69173 96.279386,469.31966 C 85.957666,467.43231 72.884436,466.23832 66.950216,466.64101 C 62.192586,466.96385 59.707846,467.81922 54.950216,470.77201 C 51.650216,472.82013 48.051576,475.03446 46.953246,475.69274 C 42.250056,478.51157 28.297496,489.70776 23.587846,494.44223 C 16.794776,501.27111 16.100406,504.15853 16.746816,522.88961 C 17.323106,539.58918 18.775436,545.89289 23.838296,553.66966 C 26.670646,558.02028 29.821536,560.61796 42.950216,569.42609 C 46.905116,572.07946 55.135726,574.97293 60.950216,575.75398 C 65.944636,576.42487 75.624336,575.2945 81.450216,573.36005 z M 293.49012,568.00824 C 296.49318,567.24849 300.61911,566.33159 302.65887,565.97069 C 308.14892,564.99931 312.38515,557.82553 315.89344,543.55884 C 318.77495,531.84097 317.14322,508.99802 312.21915,492.12149 C 310.2753,485.45923 310.13299,485.28129 303.12049,480.74493 C 283.28928,467.91619 259.27213,459.77204 239.85544,459.29193 C 231.67972,459.08977 231.3915,459.21218 224.2799,465.90672 C 192.62915,495.7013 193.92479,532.19282 227.45022,555.19843 C 230.47522,557.27422 235.42522,559.99054 238.45022,561.23468 C 241.47522,562.47883 244.85022,563.8829 245.95022,564.35483 C 247.77064,565.13586 253.0789,566.32345 263.95022,568.38189 C 270.80497,569.67981 287.72911,569.46574 293.49012,568.00824 z"
     id="path2642" />
</svg>
